<mxfile host="app.diagrams.net" modified="2023-12-11T06:39:03.921Z" agent="Mozilla/5.0 (Windows NT 10.0; Win64; x64) AppleWebKit/537.36 (KHTML, like Gecko) Chrome/119.0.0.0 Safari/537.36" etag="Xrt2LkJ5EhquJSKmOiHN" version="22.1.7" type="device">
  <diagram name="Trang-1" id="FslRv-n9rKLNau43U-N6">
    <mxGraphModel dx="2767" dy="1207" grid="0" gridSize="10" guides="1" tooltips="1" connect="1" arrows="1" fold="1" page="0" pageScale="1" pageWidth="827" pageHeight="1169" background="none" math="0" shadow="0">
      <root>
        <mxCell id="0" />
        <mxCell id="1" parent="0" />
        <mxCell id="MB0Narek4v8TUpKaicI7-35" value="" style="rounded=0;whiteSpace=wrap;html=1;fillColor=#FEFFED;strokeColor=#36393d;" vertex="1" parent="1">
          <mxGeometry x="110" y="970" width="570" height="210" as="geometry" />
        </mxCell>
        <mxCell id="LJaMf9GfW4qFow41-wDV-12" value="" style="rounded=0;whiteSpace=wrap;html=1;fillColor=#f9f7ed;strokeColor=#36393d;" parent="1" vertex="1">
          <mxGeometry x="60" y="50" width="690" height="270" as="geometry" />
        </mxCell>
        <mxCell id="MB0Narek4v8TUpKaicI7-27" style="edgeStyle=orthogonalEdgeStyle;rounded=0;orthogonalLoop=1;jettySize=auto;html=1;" edge="1" parent="1" source="LJaMf9GfW4qFow41-wDV-1" target="MB0Narek4v8TUpKaicI7-24">
          <mxGeometry relative="1" as="geometry" />
        </mxCell>
        <mxCell id="MB0Narek4v8TUpKaicI7-40" style="edgeStyle=orthogonalEdgeStyle;rounded=0;orthogonalLoop=1;jettySize=auto;html=1;entryX=1;entryY=0.5;entryDx=0;entryDy=0;" edge="1" parent="1" source="LJaMf9GfW4qFow41-wDV-1" target="MB0Narek4v8TUpKaicI7-39">
          <mxGeometry relative="1" as="geometry">
            <Array as="points">
              <mxPoint x="20" y="620" />
              <mxPoint x="20" y="710" />
              <mxPoint x="-90" y="710" />
            </Array>
          </mxGeometry>
        </mxCell>
        <mxCell id="LJaMf9GfW4qFow41-wDV-1" value="" style="rounded=0;whiteSpace=wrap;html=1;fillColor=#EDFFED;strokeColor=#36393d;" parent="1" vertex="1">
          <mxGeometry x="60" y="390" width="690" height="460" as="geometry" />
        </mxCell>
        <mxCell id="LJaMf9GfW4qFow41-wDV-2" value="Presentation Layer" style="text;html=1;strokeColor=none;fillColor=none;align=center;verticalAlign=middle;whiteSpace=wrap;rounded=0;" parent="1" vertex="1">
          <mxGeometry x="50" y="10" width="130" height="30" as="geometry" />
        </mxCell>
        <mxCell id="LJaMf9GfW4qFow41-wDV-7" value="" style="rounded=0;whiteSpace=wrap;html=1;" parent="1" vertex="1">
          <mxGeometry x="70" y="100" width="320" height="170" as="geometry" />
        </mxCell>
        <mxCell id="LJaMf9GfW4qFow41-wDV-3" value="SDMS.CRM.UI" style="rounded=1;whiteSpace=wrap;html=1;" parent="1" vertex="1">
          <mxGeometry x="90" y="120" width="130" height="60" as="geometry" />
        </mxCell>
        <mxCell id="LJaMf9GfW4qFow41-wDV-4" value="SDMS.INVENTORY.UI" style="rounded=1;whiteSpace=wrap;html=1;" parent="1" vertex="1">
          <mxGeometry x="240" y="120" width="140" height="60" as="geometry" />
        </mxCell>
        <mxCell id="LJaMf9GfW4qFow41-wDV-8" value="" style="rounded=0;whiteSpace=wrap;html=1;" parent="1" vertex="1">
          <mxGeometry x="414" y="100" width="320" height="170" as="geometry" />
        </mxCell>
        <mxCell id="LJaMf9GfW4qFow41-wDV-5" value="SDMS.WEB" style="rounded=1;whiteSpace=wrap;html=1;" parent="1" vertex="1">
          <mxGeometry x="434" y="120" width="130" height="60" as="geometry" />
        </mxCell>
        <mxCell id="LJaMf9GfW4qFow41-wDV-6" value="SDMS.MOBILE" style="rounded=1;whiteSpace=wrap;html=1;" parent="1" vertex="1">
          <mxGeometry x="584" y="120" width="130" height="60" as="geometry" />
        </mxCell>
        <mxCell id="LJaMf9GfW4qFow41-wDV-9" value="Internal application" style="text;html=1;strokeColor=none;fillColor=none;align=center;verticalAlign=middle;whiteSpace=wrap;rounded=0;" parent="1" vertex="1">
          <mxGeometry x="70" y="70" width="130" height="30" as="geometry" />
        </mxCell>
        <mxCell id="LJaMf9GfW4qFow41-wDV-10" value="External Application" style="text;html=1;strokeColor=none;fillColor=none;align=center;verticalAlign=middle;whiteSpace=wrap;rounded=0;" parent="1" vertex="1">
          <mxGeometry x="414" y="70" width="136" height="30" as="geometry" />
        </mxCell>
        <mxCell id="LJaMf9GfW4qFow41-wDV-11" value="SDMS.ACCOUNT.UI" style="rounded=1;whiteSpace=wrap;html=1;" parent="1" vertex="1">
          <mxGeometry x="160" y="195" width="140" height="60" as="geometry" />
        </mxCell>
        <mxCell id="LJaMf9GfW4qFow41-wDV-13" value="Bussiness Logic Layer" style="text;html=1;strokeColor=none;fillColor=none;align=center;verticalAlign=middle;whiteSpace=wrap;rounded=0;" parent="1" vertex="1">
          <mxGeometry x="60" y="360" width="150" height="30" as="geometry" />
        </mxCell>
        <mxCell id="MB0Narek4v8TUpKaicI7-1" value="SDMS.CRM" style="rounded=1;whiteSpace=wrap;html=1;" vertex="1" parent="1">
          <mxGeometry x="100" y="430" width="130" height="60" as="geometry" />
        </mxCell>
        <mxCell id="MB0Narek4v8TUpKaicI7-2" value="SDMS.INVENTORY" style="rounded=1;whiteSpace=wrap;html=1;" vertex="1" parent="1">
          <mxGeometry x="260" y="430" width="140" height="60" as="geometry" />
        </mxCell>
        <mxCell id="MB0Narek4v8TUpKaicI7-3" value="SDMS.ACCOUNT" style="rounded=1;whiteSpace=wrap;html=1;" vertex="1" parent="1">
          <mxGeometry x="424" y="430" width="140" height="60" as="geometry" />
        </mxCell>
        <mxCell id="MB0Narek4v8TUpKaicI7-4" value="SDMS.FILE" style="rounded=1;whiteSpace=wrap;html=1;" vertex="1" parent="1">
          <mxGeometry x="584" y="430" width="140" height="60" as="geometry" />
        </mxCell>
        <mxCell id="MB0Narek4v8TUpKaicI7-5" value="" style="rounded=0;whiteSpace=wrap;html=1;" vertex="1" parent="1">
          <mxGeometry x="100" y="580" width="615" height="210" as="geometry" />
        </mxCell>
        <mxCell id="MB0Narek4v8TUpKaicI7-6" value="Background worker" style="text;html=1;strokeColor=none;fillColor=none;align=center;verticalAlign=middle;whiteSpace=wrap;rounded=0;" vertex="1" parent="1">
          <mxGeometry x="100" y="550" width="140" height="30" as="geometry" />
        </mxCell>
        <mxCell id="MB0Narek4v8TUpKaicI7-7" value="SDMS.FILE.WORKER" style="rounded=1;whiteSpace=wrap;html=1;" vertex="1" parent="1">
          <mxGeometry x="130" y="610" width="160" height="60" as="geometry" />
        </mxCell>
        <mxCell id="MB0Narek4v8TUpKaicI7-8" value="" style="rounded=0;whiteSpace=wrap;html=1;fillColor=#dae8fc;strokeColor=#6c8ebf;" vertex="1" parent="1">
          <mxGeometry x="-260" y="388" width="220" height="210" as="geometry" />
        </mxCell>
        <mxCell id="MB0Narek4v8TUpKaicI7-9" value="SDMS.CORE" style="rounded=1;whiteSpace=wrap;html=1;" vertex="1" parent="1">
          <mxGeometry x="-220" y="428" width="130" height="60" as="geometry" />
        </mxCell>
        <mxCell id="MB0Narek4v8TUpKaicI7-10" value="SDMS.THIRDPARTY SERIVCE" style="rounded=1;whiteSpace=wrap;html=1;" vertex="1" parent="1">
          <mxGeometry x="-220" y="508" width="130" height="60" as="geometry" />
        </mxCell>
        <mxCell id="MB0Narek4v8TUpKaicI7-11" value="" style="rounded=0;whiteSpace=wrap;html=1;fillColor=#dae8fc;strokeColor=#6c8ebf;" vertex="1" parent="1">
          <mxGeometry x="-260" y="75" width="220" height="195" as="geometry" />
        </mxCell>
        <mxCell id="MB0Narek4v8TUpKaicI7-12" value="SDMS.UI.COMPONENTS" style="rounded=1;whiteSpace=wrap;html=1;" vertex="1" parent="1">
          <mxGeometry x="-240" y="110" width="180" height="60" as="geometry" />
        </mxCell>
        <mxCell id="MB0Narek4v8TUpKaicI7-13" value="" style="rounded=0;whiteSpace=wrap;html=1;fillColor=#f8cecc;strokeColor=#b85450;" vertex="1" parent="1">
          <mxGeometry x="-265" y="956.5" width="220" height="110" as="geometry" />
        </mxCell>
        <mxCell id="MB0Narek4v8TUpKaicI7-14" value="SDMS.PACKAGES" style="rounded=1;whiteSpace=wrap;html=1;" vertex="1" parent="1">
          <mxGeometry x="-220" y="981.5" width="130" height="60" as="geometry" />
        </mxCell>
        <mxCell id="MB0Narek4v8TUpKaicI7-15" value="" style="outlineConnect=0;dashed=0;verticalLabelPosition=bottom;verticalAlign=top;align=center;html=1;shape=mxgraph.aws3.queue;fillColor=#D9A741;gradientColor=none;" vertex="1" parent="1">
          <mxGeometry x="950" y="550" width="73.5" height="48" as="geometry" />
        </mxCell>
        <mxCell id="MB0Narek4v8TUpKaicI7-16" value="" style="endArrow=classic;html=1;rounded=0;exitX=1;exitY=0.152;exitDx=0;exitDy=0;exitPerimeter=0;entryX=0.5;entryY=0;entryDx=0;entryDy=0;entryPerimeter=0;" edge="1" parent="1" source="LJaMf9GfW4qFow41-wDV-1" target="MB0Narek4v8TUpKaicI7-15">
          <mxGeometry width="50" height="50" relative="1" as="geometry">
            <mxPoint x="800" y="690" as="sourcePoint" />
            <mxPoint x="850" y="640" as="targetPoint" />
            <Array as="points">
              <mxPoint x="987" y="460" />
            </Array>
          </mxGeometry>
        </mxCell>
        <mxCell id="MB0Narek4v8TUpKaicI7-17" style="edgeStyle=orthogonalEdgeStyle;rounded=0;orthogonalLoop=1;jettySize=auto;html=1;entryX=0.5;entryY=1;entryDx=0;entryDy=0;entryPerimeter=0;" edge="1" parent="1" source="MB0Narek4v8TUpKaicI7-5" target="MB0Narek4v8TUpKaicI7-15">
          <mxGeometry relative="1" as="geometry" />
        </mxCell>
        <mxCell id="MB0Narek4v8TUpKaicI7-18" value="PULL QUEUE COMMAND" style="text;html=1;strokeColor=none;fillColor=none;align=center;verticalAlign=middle;whiteSpace=wrap;rounded=0;" vertex="1" parent="1">
          <mxGeometry x="770" y="660" width="190" height="30" as="geometry" />
        </mxCell>
        <mxCell id="MB0Narek4v8TUpKaicI7-19" value="PUSH QUEUE COMMAND" style="text;html=1;strokeColor=none;fillColor=none;align=center;verticalAlign=middle;whiteSpace=wrap;rounded=0;" vertex="1" parent="1">
          <mxGeometry x="790" y="430" width="190" height="30" as="geometry" />
        </mxCell>
        <mxCell id="MB0Narek4v8TUpKaicI7-20" value="" style="outlineConnect=0;dashed=0;verticalLabelPosition=bottom;verticalAlign=top;align=center;html=1;shape=mxgraph.aws3.android;fillColor=#8CC64F;gradientColor=none;" vertex="1" parent="1">
          <mxGeometry x="860" y="120" width="73.5" height="84" as="geometry" />
        </mxCell>
        <mxCell id="MB0Narek4v8TUpKaicI7-21" value="" style="endArrow=none;dashed=1;html=1;rounded=0;exitX=0.997;exitY=0.422;exitDx=0;exitDy=0;exitPerimeter=0;" edge="1" parent="1" source="LJaMf9GfW4qFow41-wDV-12" target="MB0Narek4v8TUpKaicI7-20">
          <mxGeometry width="50" height="50" relative="1" as="geometry">
            <mxPoint x="800" y="210" as="sourcePoint" />
            <mxPoint x="850" y="160" as="targetPoint" />
          </mxGeometry>
        </mxCell>
        <mxCell id="MB0Narek4v8TUpKaicI7-22" value="SOCKET SERVICE" style="text;html=1;strokeColor=none;fillColor=none;align=center;verticalAlign=middle;whiteSpace=wrap;rounded=0;" vertex="1" parent="1">
          <mxGeometry x="900" y="150" width="190" height="30" as="geometry" />
        </mxCell>
        <mxCell id="MB0Narek4v8TUpKaicI7-23" value="" style="verticalLabelPosition=bottom;html=1;verticalAlign=top;align=center;strokeColor=none;fillColor=#00BEF2;shape=mxgraph.azure.mysql_database;" vertex="1" parent="1">
          <mxGeometry x="182.5" y="1056" width="37.5" height="50" as="geometry" />
        </mxCell>
        <mxCell id="MB0Narek4v8TUpKaicI7-24" value="" style="image;sketch=0;aspect=fixed;html=1;points=[];align=center;fontSize=12;image=img/lib/mscae/Cache_Redis_Product.svg;" vertex="1" parent="1">
          <mxGeometry x="370" y="1066.5" width="50" height="42" as="geometry" />
        </mxCell>
        <mxCell id="MB0Narek4v8TUpKaicI7-31" style="edgeStyle=orthogonalEdgeStyle;rounded=0;orthogonalLoop=1;jettySize=auto;html=1;exitX=1;exitY=0.75;exitDx=0;exitDy=0;entryX=1;entryY=0.38;entryDx=0;entryDy=0;entryPerimeter=0;" edge="1" parent="1" source="LJaMf9GfW4qFow41-wDV-12" target="MB0Narek4v8TUpKaicI7-25">
          <mxGeometry relative="1" as="geometry">
            <mxPoint x="980" y="255" as="sourcePoint" />
            <mxPoint x="860" y="1090.5000000000005" as="targetPoint" />
            <Array as="points">
              <mxPoint x="750" y="256" />
              <mxPoint x="1100" y="256" />
              <mxPoint x="1100" y="1080" />
            </Array>
          </mxGeometry>
        </mxCell>
        <mxCell id="MB0Narek4v8TUpKaicI7-25" value="" style="outlineConnect=0;dashed=0;verticalLabelPosition=bottom;verticalAlign=top;align=center;html=1;shape=mxgraph.aws3.search_documents;fillColor=#F58534;gradientColor=none;" vertex="1" parent="1">
          <mxGeometry x="570" y="1056" width="60" height="63" as="geometry" />
        </mxCell>
        <mxCell id="MB0Narek4v8TUpKaicI7-26" style="edgeStyle=orthogonalEdgeStyle;rounded=0;orthogonalLoop=1;jettySize=auto;html=1;entryX=0.533;entryY=0.14;entryDx=0;entryDy=0;entryPerimeter=0;" edge="1" parent="1" source="LJaMf9GfW4qFow41-wDV-1" target="MB0Narek4v8TUpKaicI7-23">
          <mxGeometry relative="1" as="geometry">
            <Array as="points">
              <mxPoint x="405" y="910" />
              <mxPoint x="202" y="910" />
            </Array>
          </mxGeometry>
        </mxCell>
        <mxCell id="MB0Narek4v8TUpKaicI7-28" style="edgeStyle=orthogonalEdgeStyle;rounded=0;orthogonalLoop=1;jettySize=auto;html=1;entryX=0.5;entryY=0;entryDx=0;entryDy=0;entryPerimeter=0;" edge="1" parent="1" source="MB0Narek4v8TUpKaicI7-30" target="MB0Narek4v8TUpKaicI7-25">
          <mxGeometry relative="1" as="geometry" />
        </mxCell>
        <mxCell id="MB0Narek4v8TUpKaicI7-29" value="" style="edgeStyle=orthogonalEdgeStyle;rounded=0;orthogonalLoop=1;jettySize=auto;html=1;entryX=0.5;entryY=0;entryDx=0;entryDy=0;entryPerimeter=0;" edge="1" parent="1" source="LJaMf9GfW4qFow41-wDV-1" target="MB0Narek4v8TUpKaicI7-30">
          <mxGeometry relative="1" as="geometry">
            <mxPoint x="405" y="850" as="sourcePoint" />
            <mxPoint x="680" y="1010" as="targetPoint" />
          </mxGeometry>
        </mxCell>
        <mxCell id="MB0Narek4v8TUpKaicI7-30" value="INDEX DOCUMENT" style="text;html=1;strokeColor=none;fillColor=none;align=center;verticalAlign=middle;whiteSpace=wrap;rounded=0;" vertex="1" parent="1">
          <mxGeometry x="540" y="996.5" width="120" height="30" as="geometry" />
        </mxCell>
        <mxCell id="MB0Narek4v8TUpKaicI7-34" value="QUERY DATA" style="text;html=1;strokeColor=none;fillColor=none;align=center;verticalAlign=middle;whiteSpace=wrap;rounded=0;" vertex="1" parent="1">
          <mxGeometry x="900" y="225" width="90" height="30" as="geometry" />
        </mxCell>
        <mxCell id="MB0Narek4v8TUpKaicI7-36" value="MYSQL" style="text;html=1;strokeColor=none;fillColor=none;align=center;verticalAlign=middle;whiteSpace=wrap;rounded=0;" vertex="1" parent="1">
          <mxGeometry x="171.25" y="1108.5" width="60" height="30" as="geometry" />
        </mxCell>
        <mxCell id="MB0Narek4v8TUpKaicI7-37" value="REDIS" style="text;html=1;strokeColor=none;fillColor=none;align=center;verticalAlign=middle;whiteSpace=wrap;rounded=0;" vertex="1" parent="1">
          <mxGeometry x="365" y="1119" width="60" height="30" as="geometry" />
        </mxCell>
        <mxCell id="MB0Narek4v8TUpKaicI7-38" value="MEILISEARCH" style="text;html=1;strokeColor=none;fillColor=none;align=center;verticalAlign=middle;whiteSpace=wrap;rounded=0;" vertex="1" parent="1">
          <mxGeometry x="545" y="1120" width="110" height="30" as="geometry" />
        </mxCell>
        <mxCell id="MB0Narek4v8TUpKaicI7-39" value="SDMS.TUNNEL" style="rounded=1;whiteSpace=wrap;html=1;" vertex="1" parent="1">
          <mxGeometry x="-220" y="670" width="130" height="60" as="geometry" />
        </mxCell>
        <mxCell id="MB0Narek4v8TUpKaicI7-42" style="edgeStyle=orthogonalEdgeStyle;rounded=0;orthogonalLoop=1;jettySize=auto;html=1;entryX=0.456;entryY=0.023;entryDx=0;entryDy=0;entryPerimeter=0;" edge="1" parent="1" source="MB0Narek4v8TUpKaicI7-39" target="MB0Narek4v8TUpKaicI7-13">
          <mxGeometry relative="1" as="geometry" />
        </mxCell>
        <mxCell id="MB0Narek4v8TUpKaicI7-43" style="edgeStyle=orthogonalEdgeStyle;rounded=0;orthogonalLoop=1;jettySize=auto;html=1;entryX=-0.005;entryY=0.553;entryDx=0;entryDy=0;entryPerimeter=0;" edge="1" parent="1" source="MB0Narek4v8TUpKaicI7-13" target="MB0Narek4v8TUpKaicI7-35">
          <mxGeometry relative="1" as="geometry" />
        </mxCell>
        <mxCell id="MB0Narek4v8TUpKaicI7-44" value="BACKEND COMMON PACKAGE" style="text;html=1;strokeColor=none;fillColor=none;align=center;verticalAlign=middle;whiteSpace=wrap;rounded=0;" vertex="1" parent="1">
          <mxGeometry x="-260" y="359" width="220" height="30" as="geometry" />
        </mxCell>
        <mxCell id="MB0Narek4v8TUpKaicI7-45" value="FRONTEND COMMON PACKAGE" style="text;html=1;strokeColor=none;fillColor=none;align=center;verticalAlign=middle;whiteSpace=wrap;rounded=0;" vertex="1" parent="1">
          <mxGeometry x="-260" y="45" width="220" height="30" as="geometry" />
        </mxCell>
        <mxCell id="MB0Narek4v8TUpKaicI7-47" value="Database layer" style="text;html=1;strokeColor=none;fillColor=none;align=center;verticalAlign=middle;whiteSpace=wrap;rounded=0;" vertex="1" parent="1">
          <mxGeometry x="112" y="1180" width="121" height="30" as="geometry" />
        </mxCell>
      </root>
    </mxGraphModel>
  </diagram>
</mxfile>
